<svg width="64" height="64" viewBox="0 0 64 64" version="1.1" xmlns="http://www.w3.org/2000/svg" xmlns:svg="http://www.w3.org/2000/svg">
<rect fill="#241f31" width="48" height="64" x="8" y="0" rx="4" ry="4" />
<rect fill="#ffffff" width="40" height="56" x="12" y="4" />
<rect fill="#241f31" width="28" height="4" x="16" y="48" rx="1" ry="1" />
<rect fill="#241f31" width="8" height="4" x="36" y="24" rx="1" ry="1" />
<rect fill="#241f31" width="32" height="4" x="16" y="32" rx="1" ry="1" />
<rect fill="#241f31" width="24" height="4" x="16" y="40" rx="1" ry="1" />
<rect fill="#3584e4" width="16" height="20" x="16" y="8" />
<circle fill="#1a5fb4" cx="24" cy="16" r="4" />
<path fill="#1a5fb4" d="m 24,20 a 8,8 0 0 0 -8,8 h 16 a 8,8 0 0 0 -8,-8 z" />
<rect fill="#241f31" width="8" height="4" x="36" y="8" rx="1" ry="1" />
<rect fill="#241f31" width="12" height="4" x="36" y="16" rx="1" ry="1" />
</svg>
