<?xml version="1.0" encoding="UTF-8" standalone="no"?>
<!-- Created with Inkscape (http://www.inkscape.org/) -->

<svg
   width="64"
   height="64"
   viewBox="0 0 16.933333 16.933333"
   version="1.1"
   id="svg5"
   inkscape:version="1.2.2 (b0a8486541, 2022-12-01)"
   sodipodi:docname="favicon.svg"
   inkscape:export-filename="favicon.png"
   inkscape:export-xdpi="96"
   inkscape:export-ydpi="96"
   xmlns:inkscape="http://www.inkscape.org/namespaces/inkscape"
   xmlns:sodipodi="http://sodipodi.sourceforge.net/DTD/sodipodi-0.dtd"
   xmlns="http://www.w3.org/2000/svg"
   xmlns:svg="http://www.w3.org/2000/svg">
  <sodipodi:namedview
     id="namedview7"
     pagecolor="#505050"
     bordercolor="#eeeeee"
     borderopacity="1"
     inkscape:showpageshadow="0"
     inkscape:pageopacity="0"
     inkscape:pagecheckerboard="0"
     inkscape:deskcolor="#505050"
     inkscape:document-units="px"
     showgrid="true"
     inkscape:zoom="5.5578405"
     inkscape:cx="108.94519"
     inkscape:cy="111.46416"
     inkscape:window-width="1736"
     inkscape:window-height="642"
     inkscape:window-x="26"
     inkscape:window-y="32"
     inkscape:window-maximized="0"
     inkscape:current-layer="layer1">
    <inkscape:grid
       type="xygrid"
       id="grid77"
       spacingx="1.0583333"
       spacingy="1.0583333"
       dotted="true"
       originx="0"
       originy="0"
       empspacing="4" />
  </sodipodi:namedview>
  <defs
     id="defs2" />
  <g
     inkscape:label="Слой 1"
     inkscape:groupmode="layer"
     id="layer1">
    <rect
       style="fill:#ffffff;stroke-width:2.11667;stroke-linecap:round;stroke-linejoin:round;paint-order:markers stroke fill"
       id="rect676"
       width="11.641666"
       height="15.875"
       x="2.6458333"
       y="0.52916664" />
    <rect
       style="fill:#3584e4;stroke-width:2.11667;stroke-linecap:round;stroke-linejoin:round;paint-order:markers stroke fill"
       id="rect351"
       width="4.2333331"
       height="5.2916665"
       x="4.2333331"
       y="2.1166666" />
    <rect
       style="fill:#241f31;stroke-width:2.11667;stroke-linecap:round;stroke-linejoin:round;paint-order:markers stroke fill"
       id="rect353"
       width="2.1166666"
       height="1.0583333"
       x="9.5249996"
       y="2.1166666"
       rx="0.26458332"
       ry="0.26458332" />
    <rect
       style="fill:#241f31;stroke-width:2.11667;stroke-linecap:round;stroke-linejoin:round;paint-order:markers stroke fill"
       id="rect355"
       width="3.175"
       height="1.0583333"
       x="9.5249996"
       y="4.2333331"
       rx="0.26458332"
       ry="0.26458332" />
    <rect
       style="fill:#241f31;stroke-width:2.11667;stroke-linecap:round;stroke-linejoin:round;paint-order:markers stroke fill"
       id="rect357"
       width="2.1166666"
       height="1.0583333"
       x="9.5249996"
       y="6.3499999"
       rx="0.26458332"
       ry="0.26458332" />
    <rect
       style="fill:#241f31;stroke-width:2.11667;stroke-linecap:round;stroke-linejoin:round;paint-order:markers stroke fill"
       id="rect359"
       width="8.4666662"
       height="1.0583333"
       x="4.2333331"
       y="8.4666662"
       rx="0.26458332"
       ry="0.26458332" />
    <rect
       style="fill:#241f31;stroke-width:2.11667;stroke-linecap:round;stroke-linejoin:round;paint-order:markers stroke fill"
       id="rect361"
       width="6.3499999"
       height="1.0583333"
       x="4.2333331"
       y="10.583333"
       rx="0.26458332"
       ry="0.26458332" />
    <rect
       style="fill:#241f31;stroke-width:2.11667;stroke-linecap:round;stroke-linejoin:round;paint-order:markers stroke fill"
       id="rect363"
       width="7.4083333"
       height="1.0583333"
       x="4.2333331"
       y="12.7"
       rx="0.26458332"
       ry="0.26458332" />
    <path
       id="rect419"
       style="fill:#241f31;stroke-width:2.11667;stroke-linecap:round;stroke-linejoin:round;paint-order:markers stroke fill"
       d="M 3.1749989,0 C 2.5886829,0 2.1166659,0.47201728 2.1166659,1.0583333 V 15.875 c 0,0.586316 0.472017,1.058333 1.058333,1.058333 H 13.758333 c 0.586316,0 1.058333,-0.472017 1.058333,-1.058333 V 1.0583333 C 14.816666,0.47201728 14.344649,0 13.758333,0 Z m 0,1.0583333 H 13.758333 V 15.875 H 3.1749989 Z" />
    <path
       id="path476"
       style="fill:#1a5fb4;stroke-width:2.11667;stroke-linecap:round;stroke-linejoin:round;paint-order:markers stroke fill"
       d="M 6.35 3.175 A 1.0583333 1.0583333 0 0 0 5.2916667 4.2333333 A 1.0583333 1.0583333 0 0 0 6.35 5.2916667 A 1.0583333 1.0583333 0 0 0 7.4083333 4.2333333 A 1.0583333 1.0583333 0 0 0 6.35 3.175 z M 6.35 5.2916667 A 2.1166666 2.1166666 0 0 0 4.2333333 7.4083333 L 8.4666667 7.4083333 A 2.1166666 2.1166666 0 0 0 6.35 5.2916667 z " />
  </g>
</svg>
